<?xml version="1.0" encoding="utf-8"?>
<!-- Generator: Adobe Illustrator 24.3.0, SVG Export Plug-In . SVG Version: 6.00 Build 0)  -->
<svg version="1.1" id="Layer_1" xmlns="http://www.w3.org/2000/svg" xmlns:xlink="http://www.w3.org/1999/xlink" x="0px" y="0px"
	 viewBox="0 0 623.62 113.39" style="enable-background:new 0 0 623.62 113.39;" xml:space="preserve">
<style type="text/css">
	.st0{fill:#FFF;}
</style>
<polygon class="st0" points="10.87,19.19 10.87,95.79 22.11,95.79 54.45,53.4 54.45,95.79 72.32,95.79 72.32,19.19 60.91,19.19 
	29.34,60.64 29.38,19.19 "/>
<polygon class="st0" points="89.89,19.19 89.89,95.79 108.02,95.79 108.02,66.09 132.15,66.09 132.15,95.79 150.91,95.79 
	150.91,19.19 132.53,19.19 132.53,48.21 107.77,48.21 107.77,19.19 "/>
<path class="st0" d="M212.66,56.69c3.49,0,13.7-4.65,13.7-17.03c0-21.57-26.21-20.47-26.21-20.47h-30.47v76.6h30.7
	c0,0,28.28,0,28.28-20.77C228.66,56.69,214.96,56.74,212.66,56.69z M187.94,36.34c0,0,11.06,0,14.77,0c7.4,0,7.7,11.87,0.17,11.87
	c-5.74,0-14.94,0-14.94,0V36.34z M204.81,77.7c-6.49,0-16.87,0-16.87,0V64.04c0,0,12.5,0,16.68,0
	C212.98,64.04,213.32,77.7,204.81,77.7z"/>
<polygon class="st0" points="243.21,19.19 243.21,95.79 295.3,95.79 295.3,77.7 261.94,77.7 261.94,66.17 292.23,66.17 
	292.23,48.21 261.6,48.21 261.6,36.34 295.3,36.34 295.3,19.19 "/>
<path class="st0" d="M330.19,19.19c-12.09,0-18.38,0-18.38,0v76.6h18.38c0,0,0-8.85,0-15.83c27.74,0.35,41.3-10.72,41.3-30.13
	C371.49,27.45,359.21,19.19,330.19,19.19z M340.62,61.87c-5.74,0-10.85,0-10.85,0V36.34c0,0,7.36,0,11.06,0
	C359.96,36.34,359.32,61.87,340.62,61.87z"/>
<path class="st0" d="M437.13,72.72L449,83.7c0,0-9.32,12.09-30,12.09c-20.94,0-37.91-15.79-37.91-39.09
	c0-20.35,17.49-38.22,38.43-38.22c19.15,0,29.49,12,29.49,12l-11.74,10.98c0,0-7.02-6.26-18-6.26c-9.83,0-19.53,8.04-19.53,21.94
	c0,11.77,9.45,22.11,18.38,22.11C432.53,79.23,437.13,72.72,437.13,72.72z"/>
<polygon class="st0" points="462.45,19.19 462.45,95.79 473.68,95.79 506.02,53.4 506.02,95.79 523.89,95.79 523.89,19.19 
	512.49,19.19 480.91,60.64 480.96,19.19 "/>
<path class="st0" d="M569.34,19.19c0,0-30.98,0-30.98,27.06c0,18.94,9.96,23.02,15.15,25.87c-4.89,3.23-16.68,23.66-16.68,23.66
	s13.83,0,20.09,0c10.38-17.53,10.81-17.19,22.81-17.19c0,7.02,0,17.19,0,17.19h18.89v-76.6H569.34z M580.3,60.55c0,0-7.12,0-10.7,0
	c-18.5,0-17.88-24.85,0.2-24.85c5.56,0,10.5,0,10.5,0V60.55z"/>
</svg>
